<svg width="500" height="500" viewBox="0 0 500 500" fill="none" xmlns="http://www.w3.org/2000/svg">
<path fill-rule="evenodd" clip-rule="evenodd" d="M250.355 499.999C214.709 500.071 180.03 492.625 147.277 477.871C21.5986 421.248 -34.5707 272.956 22.0675 147.312C62.3201 58.0189 151.648 0.196045 249.642 0.000610853C285.289 -0.0704951 319.97 7.37637 352.72 22.1291C478.401 78.7571 534.571 227.044 477.933 352.694C437.68 441.983 348.35 499.804 250.355 499.999ZM296.476 26.5261C218.07 10.5817 167.696 48.744 154.076 90.9523C140.574 132.802 158.759 196.977 254.469 240.099C356.176 285.923 381.461 353.398 371.208 401.262C366.053 425.323 358.418 440.251 336.925 456.734C331.914 460.716 336.138 461.256 339.108 459.995C391.023 437.917 434.114 396.976 458.104 343.762C509.816 229.04 458.532 93.6515 343.783 41.9505C328.439 35.0387 312.626 29.894 296.476 26.5211V26.5261Z" fill="#211D27"/>
</svg>
